<?xml version="1.0" encoding="UTF-8"?>
<!DOCTYPE svg PUBLIC "-//W3C//DTD SVG 1.1//EN" "http://www.w3.org/Graphics/SVG/1.1/DTD/svg11.dtd">
<svg version="1.1" xmlns="http://www.w3.org/2000/svg" xmlns:xlink="http://www.w3.org/1999/xlink" x="0px" y="0px" width="100" height="100" viewBox="0, 0, 100, 100">
  <g id="Layer 1">
    <path d="M40.753,1.994 C44.299,1.259 47.746,0.891 51.091,0.891 C57.515,0.891 63.555,2.028 69.21,4.303 C74.864,6.579 79.883,9.724 84.266,13.739 C88.649,17.754 92.213,22.472 94.956,27.892 C97.7,33.312 99.373,39.134 99.975,45.357 L87.428,36.122 C86.09,32.643 84.3,29.431 82.058,26.487 C79.816,23.542 77.223,20.966 74.279,18.758 C71.334,16.549 68.089,14.792 64.542,13.488 C60.995,12.183 57.282,11.43 53.401,11.229 z M18.469,28.896 C20.878,25.148 23.856,21.903 27.402,19.159 C30.95,16.415 34.897,14.341 39.247,12.936 L39.247,2.296 C32.02,4.102 25.596,7.348 19.975,12.032 C14.354,16.717 9.937,22.338 6.725,28.896 z M39.247,87.014 C34.897,85.608 30.95,83.534 27.402,80.79 C23.856,78.047 20.878,74.801 18.469,71.054 L6.725,71.054 C9.937,77.612 14.354,83.233 19.975,87.917 C25.596,92.601 32.02,95.846 39.247,97.654 z M87.428,63.826 C86.09,67.306 84.3,70.519 82.058,73.463 C79.816,76.407 77.223,78.983 74.279,81.192 C71.334,83.4 68.089,85.157 64.542,86.462 C60.995,87.766 57.282,88.519 53.401,88.72 L40.753,97.955 C44.299,98.691 47.746,99.059 51.091,99.059 C57.515,99.059 63.555,97.921 69.21,95.646 C74.864,93.371 79.883,90.226 84.266,86.211 C88.649,82.196 92.213,77.478 94.956,72.058 C97.7,66.637 99.373,60.815 99.975,54.592 z M43.363,8.921 L43.363,33.011 L-0,33.011 L-0,66.938 L43.363,66.938 L43.363,91.029 L99.373,49.975 z M43.764,40.84 L50.289,40.238 L59.623,32.308 L70.966,34.215 L71.87,46.562 L66.951,44.153 L66.047,38.532 L64.04,39.636 L62.334,49.673 L55.91,55.294 L62.936,54.291 L66.349,63.124 L73.877,64.228 L70.866,66.637 L59.824,65.433 L51.192,62.22 L44.065,62.22 L42.259,45.458 L-0,41.945 z M81.606,37.528 L82.108,40.138 L81.606,42.246 L73.676,43.049 L73.375,36.725 z M65.446,46.562 L73.074,49.272 L73.676,44.153 L81.606,44.956 L82.108,47.867 L81.606,50.677 L71.267,51.48 L65.345,48.57 z M71.669,52.886 L79.297,52.785 L79.9,54.692 L79.297,56.901 L71.97,57.503 L66.248,55.495 L66.248,51.882 z M67.051,57.904 L72.171,59.209 L77.591,58.808 L78.193,60.313 L77.591,62.12 L73.375,63.024 L67.754,61.217 z M9.837,48.871 L40.352,48.871 L41.054,53.287 z M14.454,55.997 L40.352,56.298 L41.054,60.313 z M14.454,55.997" fill="#000000"/>
  </g>
  <defs/>
</svg>
