<?xml version="1.0" encoding="UTF-8"?>
<!DOCTYPE svg PUBLIC "-//W3C//DTD SVG 1.1//EN" "http://www.w3.org/Graphics/SVG/1.1/DTD/svg11.dtd">
<svg version="1.1" xmlns="http://www.w3.org/2000/svg" xmlns:xlink="http://www.w3.org/1999/xlink" x="0" y="0" width="12" height="12" viewBox="0, 0, 12, 12">
  <g id="Layer_1">
    <path d="M1.925,-0 L10.075,-0 C10.342,-0 10.592,0.05 10.825,0.15 C11.058,0.25 11.263,0.388 11.437,0.562 C11.612,0.737 11.75,0.942 11.85,1.175 C11.95,1.408 12,1.658 12,1.925 L12,10.076 C12,10.343 11.95,10.592 11.85,10.826 C11.75,11.059 11.612,11.264 11.437,11.438 C11.263,11.613 11.058,11.751 10.825,11.851 C10.6,11.948 10.359,11.994 10.115,12 L1.885,12 C1.64,12.001 1.402,11.941 1.175,11.851 C0.942,11.751 0.737,11.613 0.562,11.438 C0.388,11.264 0.25,11.059 0.15,10.826 C0.05,10.592 -0,10.343 -0,10.076 L-0,1.925 C-0,1.658 0.05,1.408 0.15,1.175 C0.25,0.942 0.388,0.737 0.562,0.562 C0.737,0.388 0.942,0.25 1.175,0.15 C1.408,0.05 1.658,-0 1.925,-0 z" fill="#000000"/>
  </g>
</svg>
