<?xml version="1.0" encoding="UTF-8"?>
<!DOCTYPE svg PUBLIC "-//W3C//DTD SVG 1.1//EN" "http://www.w3.org/Graphics/SVG/1.1/DTD/svg11.dtd">
<svg version="1.1" xmlns="http://www.w3.org/2000/svg" xmlns:xlink="http://www.w3.org/1999/xlink" x="0px" y="0px" width="100" height="100" viewBox="0, 0, 100, 100">
  <g id="Layer 1">
    <path d="M1.124,60.37 L10.422,47.599 C10.626,43.648 11.409,39.868 12.771,36.258 C14.134,32.648 15.939,29.328 18.186,26.296 C20.434,23.266 23.057,20.609 26.054,18.327 C29.051,16.045 32.32,14.223 35.862,12.861 L45.16,0.09 C38.825,0.703 32.916,2.405 27.433,5.198 C21.95,7.991 17.165,11.618 13.078,16.079 C8.991,20.541 5.79,25.649 3.474,31.405 C0.975,37.573 0.008,43.783 0.008,50.406 C-0.017,53.304 0.41,56.169 0.861,59.021 z M98.8,60.37 C99.548,56.761 99.923,53.252 99.923,49.847 C99.923,43.308 98.765,37.16 96.449,31.405 C94.133,25.649 90.932,20.541 86.845,16.079 C82.759,11.618 77.956,7.991 72.439,5.198 C66.922,2.405 60.996,0.703 54.662,0.09 L64.062,12.861 C67.603,14.223 70.873,16.045 73.869,18.327 C76.867,20.609 79.472,23.266 81.686,26.296 C83.9,29.328 85.688,32.648 87.05,36.258 C88.412,39.868 89.195,43.648 89.4,47.599 z M67.228,99.808 L67.228,57.714 L91.648,57.714 L49.962,0.703 L8.174,57.714 L32.695,57.714 L32.695,99.808 z M44.444,69.566 L44.444,53.218 L28.097,53.218 L28.097,42.286 L44.444,42.286 L44.444,25.837 L55.377,25.837 L55.377,42.286 L71.826,42.286 L71.826,53.218 L55.377,53.218 L55.377,69.566 z M71.315,95.006 C74.653,93.372 77.769,91.413 80.664,89.131 C83.559,86.85 86.181,84.313 88.531,81.52 C90.881,78.727 92.89,75.679 94.559,72.375 C96.228,69.072 97.505,65.581 98.39,61.903 L87.662,61.903 C86.232,66.33 84.121,70.349 81.328,73.959 C78.536,77.569 75.198,80.601 71.315,83.053 z M28.506,95.006 L28.506,83.053 C24.691,80.601 21.388,77.569 18.595,73.959 C15.803,70.349 13.691,66.33 12.261,61.903 L1.43,61.903 C3.27,69.259 6.573,75.798 11.341,81.52 C16.109,87.242 21.831,91.737 28.506,95.006 z" fill="#000000"/>
  </g>
  <defs/>
</svg>
