<?xml version="1.0" encoding="UTF-8"?>
<!DOCTYPE svg PUBLIC "-//W3C//DTD SVG 1.1//EN" "http://www.w3.org/Graphics/SVG/1.1/DTD/svg11.dtd">
<svg version="1.1" xmlns="http://www.w3.org/2000/svg" xmlns:xlink="http://www.w3.org/1999/xlink" x="0px" y="0px" width="100" height="100" viewBox="0, 0, 100, 100">
  <g id="Layer 1">
    <path d="M32.897,2.847 C38.203,0.966 43.711,0.025 49.42,0.025 C53.854,0.025 58.069,0.58 62.066,1.688 C66.062,2.796 69.874,4.324 73.501,6.272 C71.956,6.407 70.378,6.507 68.766,6.574 C67.154,6.642 65.474,6.675 63.728,6.675 C59.093,6.675 54.425,6.373 49.723,5.769 C46.297,5.231 43.174,4.728 40.352,4.257 C37.532,3.787 35.046,3.317 32.897,2.847 z M11.839,38.917 C12.578,36.096 13.636,33.426 15.013,30.907 C16.39,28.388 18.018,26.054 19.899,23.905 C20.101,21.083 20.319,18.413 20.554,15.894 C20.789,13.375 20.974,11.075 21.109,8.992 C16.071,12.485 11.839,16.801 8.413,21.94 C4.988,27.078 2.603,32.737 1.26,38.917 z M88.413,19.27 C88.279,22.292 88.128,25.517 87.959,28.942 C87.792,32.368 87.54,35.894 87.204,39.522 C88.01,42.679 88.413,45.936 88.413,49.295 C88.413,54.602 87.422,59.589 85.441,64.257 C83.459,68.925 80.722,73.04 77.229,76.599 C74.14,81.637 70.663,85.919 66.801,89.446 C62.939,92.972 59.261,95.877 55.768,98.161 C61.814,97.355 67.456,95.542 72.695,92.72 C77.935,89.899 82.469,86.322 86.297,81.99 C90.126,77.658 93.149,72.687 95.365,67.078 C97.582,61.469 98.69,55.542 98.69,49.295 C98.69,43.585 97.783,38.195 95.97,33.124 C94.156,28.052 91.637,23.434 88.413,19.27 z M26.448,80.731 C22.888,78.178 19.849,75.088 17.33,71.461 C14.811,67.834 12.981,63.871 11.839,59.572 L1.26,59.572 C2.2,64.072 3.728,68.304 5.844,72.267 C7.96,76.23 10.546,79.824 13.602,83.048 C16.658,86.272 20.101,89.06 23.93,91.411 C27.758,93.761 31.856,95.542 36.222,96.751 C34.677,94.735 33.048,92.385 31.335,89.698 C29.622,87.011 27.993,84.022 26.448,80.731 z M37.129,59.572 L23.728,59.572 C24.064,61.184 24.4,62.746 24.735,64.257 C25.071,65.768 25.508,67.263 26.045,68.741 z M63.728,10.806 C61.108,10.806 58.589,10.722 56.171,10.554 C53.753,10.386 51.436,10.134 49.219,9.799 C43.509,8.992 38.724,8.22 34.862,7.481 C30.999,6.743 27.926,6.104 25.643,5.567 C25.441,7.381 25.222,9.614 24.987,12.267 C24.753,14.92 24.517,17.742 24.282,20.731 C24.047,23.72 23.812,26.793 23.577,29.95 C23.342,33.107 23.157,36.129 23.023,39.018 L37.129,39.018 L24.836,28.741 L43.275,33.879 L43.275,18.464 L61.713,39.018 L61.713,59.572 L43.275,80.126 L43.275,64.711 L26.247,69.446 C27.523,73.207 28.984,76.7 30.63,79.925 C32.275,83.149 33.938,86.054 35.617,88.64 C37.296,91.226 38.892,93.476 40.403,95.39 C41.914,97.305 43.174,98.799 44.181,99.874 C45.659,99.203 47.624,98.195 50.076,96.851 C52.527,95.508 55.164,93.761 57.985,91.612 C69.337,83.014 76.624,72.536 79.849,60.177 C80.789,56.683 81.562,52.553 82.166,47.783 C82.771,43.015 83.241,38.229 83.577,33.426 C83.913,28.623 84.164,24.056 84.333,19.723 C84.5,15.39 84.585,11.881 84.585,9.194 C82.233,9.53 79.244,9.882 75.617,10.252 C71.99,10.621 68.027,10.806 63.728,10.806 z M63.728,10.806" fill="#000000"/>
  </g>
  <defs/>
</svg>
