<?xml version="1.0" encoding="UTF-8"?>
<!DOCTYPE svg PUBLIC "-//W3C//DTD SVG 1.1//EN" "http://www.w3.org/Graphics/SVG/1.1/DTD/svg11.dtd">
<svg version="1.1" xmlns="http://www.w3.org/2000/svg" xmlns:xlink="http://www.w3.org/1999/xlink" x="0px" y="0px" width="12" height="12" viewBox="0, 0, 12, 12">
  <g id="Layer 1">
    <path d="M1.925,11.999 L10.075,11.999 C10.342,11.999 10.592,11.949 10.825,11.849 C11.058,11.749 11.263,11.612 11.438,11.437 C11.612,11.262 11.75,11.057 11.85,10.824 C11.95,10.591 12,10.341 12,10.074 L12,1.924 C12,1.657 11.95,1.407 11.85,1.174 C11.75,0.941 11.612,0.737 11.438,0.562 C11.263,0.387 11.058,0.249 10.825,0.149 C10.6,0.052 10.359,0.006 10.115,0 L1.885,0 C1.64,-0.001 1.402,0.059 1.175,0.149 C0.942,0.249 0.737,0.387 0.562,0.562 C0.388,0.737 0.25,0.941 0.15,1.174 C0.05,1.407 0,1.657 0,1.924 L0,10.074 C0,10.341 0.05,10.591 0.15,10.824 C0.25,11.057 0.388,11.262 0.562,11.437 C0.737,11.612 0.942,11.749 1.175,11.849 C1.408,11.949 1.658,11.999 1.925,11.999 z M11,6.999 L1,6.999 L1,4.999 L11,4.999 z" fill="#000000"/>
  </g>
  <defs/>
</svg>
