<?xml version="1.0" encoding="UTF-8"?>
<!DOCTYPE svg PUBLIC "-//W3C//DTD SVG 1.1//EN" "http://www.w3.org/Graphics/SVG/1.1/DTD/svg11.dtd">
<svg version="1.1" xmlns="http://www.w3.org/2000/svg" xmlns:xlink="http://www.w3.org/1999/xlink" x="0px" y="0px" width="100" height="100" viewBox="0, 0, 100, 100">
  <g id="Layer 1">
    <path d="M16.347,88.71 L16.347,72.566 C14.44,69.501 12.976,66.232 11.954,62.758 C10.933,59.284 10.422,55.606 10.422,51.724 C10.422,46.274 11.46,41.149 13.538,36.347 C15.615,31.545 18.442,27.356 22.018,23.78 C25.594,20.204 29.783,17.377 34.585,15.3 C39.387,13.222 44.513,12.183 49.962,12.183 C55.411,12.183 60.536,13.222 65.339,15.3 C70.14,17.377 74.329,20.204 77.905,23.78 C81.481,27.356 84.308,31.545 86.385,36.347 C88.463,41.149 89.502,46.274 89.502,51.724 C89.502,52.473 89.485,53.188 89.451,53.869 C89.417,54.55 89.366,55.266 89.297,56.015 L99.412,58.467 C99.549,57.377 99.668,56.271 99.77,55.147 C99.872,54.023 99.923,52.882 99.923,51.724 C99.923,44.844 98.612,38.373 95.99,32.311 C93.367,26.249 89.791,20.953 85.262,16.424 C80.732,11.894 75.437,8.318 69.374,5.696 C63.312,3.073 56.841,1.762 49.962,1.762 C43.082,1.762 36.611,3.073 30.549,5.696 C24.487,8.318 19.191,11.894 14.662,16.424 C10.132,20.953 6.556,26.249 3.934,32.311 C1.14,38.621 0.008,45.472 0.008,52.337 C0.007,59.252 1.587,65.965 4.393,72.26 C7.322,78.594 11.307,84.078 16.347,88.71 z z M24.113,40.791 L35.76,33.333 L45.466,35.989 C46.692,33.81 48.191,31.766 49.962,29.859 C51.733,27.952 53.81,26.419 56.194,25.261 L46.59,22.503 C43.593,22.639 40.902,23.269 38.519,24.393 C36.135,25.517 34.023,26.947 32.184,28.684 C30.345,30.421 28.761,32.345 27.433,34.457 C26.104,36.568 24.998,38.68 24.113,40.791 z z M80.511,80.945 L94.713,61.635 L84.393,59.182 L84.189,57.752 C84.189,57.684 84.104,57.071 83.933,55.913 C83.763,54.755 83.474,53.273 83.065,51.468 C82.656,49.663 82.095,47.654 81.379,45.44 C80.664,43.226 79.727,41.047 78.569,38.901 C77.412,36.756 76.032,34.763 74.432,32.924 C72.831,31.085 70.941,29.621 68.761,28.531 L57.829,25.875 C60.009,28.463 61.745,31.306 63.04,34.405 C64.334,37.505 65.304,40.4 65.951,43.09 C66.598,45.781 67.007,48.028 67.178,49.833 C67.348,51.638 67.433,52.575 67.433,52.643 L67.535,55.197 L54.048,52.337 z M87.663,84.418 C90.251,81.489 92.465,78.288 94.304,74.814 C96.172,71.332 97.523,67.604 98.493,63.78 L87.663,78.186 z M20.537,98.212 L83.576,98.212 L83.576,83.908 L80.817,87.484 L42.095,45.491 L63.04,49.987 C63.04,48.42 62.869,46.785 62.529,45.083 L36.475,37.828 L20.537,48.148 z" fill="#000000"/>
  </g>
  <defs/>
</svg>
