<?xml version="1.0" encoding="UTF-8"?>
<!DOCTYPE svg PUBLIC "-//W3C//DTD SVG 1.1//EN" "http://www.w3.org/Graphics/SVG/1.1/DTD/svg11.dtd">
<svg version="1.1" xmlns="http://www.w3.org/2000/svg" xmlns:xlink="http://www.w3.org/1999/xlink" x="0px" y="0px" width="12" height="12" viewBox="0, 0, 12, 12">
  <g id="Layer 1">
    <path d="M1.925,-0 L10.075,-0 C10.342,-0 10.592,0.05 10.825,0.15 C11.058,0.25 11.263,0.388 11.437,0.562 C11.612,0.737 11.75,0.942 11.85,1.175 C11.95,1.408 12,1.658 12,1.925 L12,10.075 C12,10.342 11.95,10.592 11.85,10.825 C11.75,11.058 11.612,11.263 11.437,11.437 C11.263,11.612 11.058,11.75 10.825,11.85 C10.6,11.947 10.359,11.993 10.115,11.999 L1.885,11.999 C1.64,12 1.402,11.94 1.175,11.85 C0.942,11.75 0.737,11.612 0.562,11.437 C0.388,11.263 0.25,11.058 0.15,10.825 C0.05,10.592 -0,10.342 -0,10.075 L-0,1.925 C-0,1.658 0.05,1.408 0.15,1.175 C0.25,0.942 0.388,0.737 0.562,0.562 C0.737,0.388 0.942,0.25 1.175,0.15 C1.408,0.05 1.658,-0 1.925,-0 z M7,1 L5,1 L5,5 L1,5 L1,7 L5,7 L5,11 L7,11 L7,7 L11,7 L11,5 L7,5 z" fill="#000000"/>
  </g>
  <defs/>
</svg>
