<?xml version="1.0" encoding="UTF-8"?>
<!DOCTYPE svg PUBLIC "-//W3C//DTD SVG 1.1//EN" "http://www.w3.org/Graphics/SVG/1.1/DTD/svg11.dtd">
<svg version="1.1" xmlns="http://www.w3.org/2000/svg" xmlns:xlink="http://www.w3.org/1999/xlink" x="0px" y="0px" width="128.667" height="50" viewBox="0, 0, 128.667, 50">
  <g id="Layer 1">
    <path d="M11.708,49.405 L11.708,38.563 L1,38.563 L1,29.279 L11.708,29.279 L11.708,15.595 L42.444,15.595 L38.213,25.731 L23.454,25.731 L23.454,29.279 L36.732,29.279 L32.857,38.563 L23.454,38.563 L23.454,49.405 L11.708,49.405" fill="#171816"/>
    <path d="M42.944,15.262 L11.374,15.262 L11.374,28.945 L0.667,28.945 L0.667,38.896 L11.374,38.896 L11.374,49.739 L23.787,49.739 L23.787,38.896 L33.079,38.896 L37.232,28.945 L23.787,28.945 L23.787,26.065 L38.435,26.065 L42.944,15.262 z M41.943,15.929 L37.991,25.398 L23.12,25.398 L23.12,29.612 L36.232,29.612 L32.635,38.23 L23.12,38.23 L23.12,49.072 L12.041,49.072 L12.041,38.23 L1.333,38.23 L1.333,29.612 L12.041,29.612 L12.041,15.929 L41.943,15.929" fill="#171816"/>
    <path d="M11.041,48.739 L11.041,37.896 L0.333,37.896 L0.333,28.612 L11.041,28.612 L11.041,14.929 L41.777,14.929 L37.546,25.065 L22.787,25.065 L22.787,28.612 L36.065,28.612 L32.19,37.896 L22.787,37.896 L22.787,48.739 L11.041,48.739" fill="#2766A2"/>
    <path d="M10.708,14.595 L42.277,14.595 L37.768,25.398 L23.12,25.398 L23.12,28.279 L36.566,28.279 L32.412,38.23 L23.12,38.23 L23.12,49.072 L10.708,49.072 L10.708,38.23 L0.02,38.23 L0.02,28.279 L10.708,28.279 z M41.277,15.262 L11.374,15.262 L11.374,28.945 L0.667,28.945 L0.667,37.563 L11.374,37.563 L11.374,48.405 L22.454,48.405 L22.454,37.563 L31.968,37.563 L35.565,28.945 L22.454,28.945 L22.454,24.731 L37.324,24.731 z" fill="#FFFFFE"/>
    <path d="M127.185,17.34 L127.185,16.782 L127.075,16.949 L126.681,16.949 L126.577,16.79 L126.577,17.34 L125.661,17.34 L125.661,15.833 L125.382,15.833 L125.382,17.34 L124.466,17.34 L124.466,15.833 L123.905,15.833 L123.905,14.929 L126.441,14.929 L126.882,15.606 L127.319,14.929 L128.095,14.929 L128.095,17.34 L127.185,17.34" fill="#2766A2"/>
    <path d="M128.428,14.595 L127.138,14.595 L126.941,14.9 L126.881,14.993 L126.819,14.898 L126.622,14.595 L123.572,14.595 L123.572,16.166 L124.133,16.166 L124.133,17.673 L128.428,17.673 L128.428,14.595 z M125.609,15.262 L125.609,15.5 L125.049,15.5 L125.049,17.006 L124.8,17.006 L124.8,15.5 L124.239,15.5 L124.239,15.262 L125.609,15.262 M127.762,15.262 L127.762,17.006 L127.518,17.006 L127.518,15.67 L126.895,16.615 L126.861,16.615 L126.244,15.67 L126.244,17.006 L125.995,17.006 L125.995,15.262 L126.261,15.262 L126.884,16.219 L127.501,15.262 L127.762,15.262" fill="#FFFFFE"/>
    <path d="M94.34,49.405 L94.34,25.637 L84.632,25.637 L84.632,49.405 L72.886,49.405 L72.886,25.637 L65.62,25.637 L61.418,15.595 L123.273,15.595 L123.273,25.637 L105.897,25.637 L105.897,28.048 L122.09,28.048 L122.09,36.717 L105.897,36.717 L105.897,39.648 L123.51,39.648 L123.51,49.405 L94.34,49.405" fill="#171816"/>
    <path d="M123.607,15.262 L60.918,15.262 L65.399,25.97 L72.552,25.97 L72.552,49.739 L84.965,49.739 L84.965,25.97 L94.007,25.97 L94.007,49.739 L123.843,49.739 L123.843,39.315 L106.23,39.315 L106.23,37.05 L122.423,37.05 L122.423,27.714 L106.23,27.714 L106.23,25.97 L123.607,25.97 L123.607,15.262 z M122.94,15.929 L122.94,25.303 L105.563,25.303 L105.563,28.381 L121.756,28.381 L121.756,36.383 L105.563,36.383 L105.563,39.981 L123.177,39.981 L123.177,49.072 L94.674,49.072 L94.674,25.303 L84.298,25.303 L84.298,49.072 L73.219,49.072 L73.219,25.303 L65.842,25.303 L61.919,15.929 L122.94,15.929" fill="#171816"/>
    <path d="M93.674,48.739 L93.674,24.97 L83.965,24.97 L83.965,48.739 L72.219,48.739 L72.219,24.97 L64.954,24.97 L60.752,14.929 L122.607,14.929 L122.607,24.97 L105.23,24.97 L105.23,27.381 L121.423,27.381 L121.423,36.05 L105.23,36.05 L105.23,38.981 L122.843,38.981 L122.843,48.739 L93.674,48.739" fill="#2766A2"/>
    <path d="M122.94,14.595 L60.251,14.595 L64.732,25.303 L71.886,25.303 L71.886,49.072 L84.298,49.072 L84.298,25.303 L93.34,25.303 L93.34,49.072 L123.177,49.072 L123.177,38.648 L105.563,38.648 L105.563,36.383 L121.756,36.383 L121.756,27.048 L105.563,27.048 L105.563,25.303 L122.94,25.303 L122.94,14.595 z M122.273,15.262 L122.273,24.637 L104.897,24.637 L104.897,27.714 L121.09,27.714 L121.09,35.717 L104.897,35.717 L104.897,39.315 L122.51,39.315 L122.51,48.405 L94.007,48.405 L94.007,24.637 L83.632,24.637 L83.632,48.405 L72.552,48.405 L72.552,24.637 L65.176,24.637 L61.253,15.262 L122.273,15.262" fill="#FFFFFE"/>
    <path d="M54.515,36.443 L51.967,29.674 L49.418,36.443 L54.515,36.443 z M71.443,49.398 C67.28,48.478 63.002,47.852 58.73,47.537 L58.521,47.522 L57.516,44.97 L46.372,44.97 L45.389,47.536 L45.179,47.552 C40.984,47.871 36.779,48.492 32.68,49.398 L32.053,49.536 L52.063,1.6 L57.862,15.579 L72.071,49.536 L71.443,49.398" fill="#171816"/>
    <path d="M52.063,0.733 C62.95,26.974 56.119,10.55 72.618,49.98 L72.535,49.98 L71.371,49.723 C67.223,48.807 62.962,48.183 58.705,47.87 L58.287,47.839 C57.853,46.734 58.185,47.579 57.289,45.303 L46.602,45.303 L45.625,47.853 L45.204,47.885 C41.025,48.202 36.835,48.821 32.752,49.723 L31.589,49.98 L31.507,49.98 z M52.062,2.468 L32.608,49.072 C36.693,48.17 40.881,47.545 45.154,47.22 L46.143,44.636 L57.743,44.636 L58.754,47.205 C63.101,47.525 67.362,48.155 71.515,49.072 L57.554,15.707 z M51.967,28.727 L54.997,36.777 L48.937,36.777 z M51.967,30.62 L49.9,36.11 L54.034,36.11 z" fill="#171816"/>
    <path d="M53.849,35.777 L51.3,29.007 L48.751,35.777 L53.849,35.777 z M70.777,48.731 C66.613,47.811 62.336,47.185 58.063,46.871 L57.854,46.855 L56.849,44.303 L45.706,44.303 L44.723,46.87 L44.512,46.885 C40.317,47.205 36.112,47.825 32.013,48.731 L31.387,48.869 L51.396,0.934 L57.195,14.913 L71.404,48.87 L70.777,48.731" fill="#2766A2"/>
    <path d="M49.233,35.443 L51.3,29.953 L53.367,35.443 L49.233,35.443 z M51.397,0.066 L30.832,49.333 L32.085,49.056 C36.169,48.154 40.358,47.536 44.538,47.218 L44.958,47.186 L45.935,44.636 L56.622,44.636 L57.467,46.782 L57.621,47.172 L58.039,47.203 C62.295,47.517 66.557,48.14 70.705,49.056 L71.959,49.333 L57.502,14.783 L51.397,0.066 z M48.27,36.11 L54.33,36.11 L51.3,28.061 L48.27,36.11 M51.395,1.801 L56.887,15.04 L70.848,48.405 C66.695,47.488 62.435,46.858 58.088,46.538 L57.076,43.97 L45.476,43.97 L44.487,46.553 C40.214,46.878 36.026,47.503 31.941,48.405 L51.395,1.801" fill="#FFFFFE"/>
    <path d="M64.615,8.779 C64.925,8.779 65.082,8.684 65.082,8.496 C65.082,8.388 65.082,8.197 64.624,8.197 L64.445,8.197 L64.445,8.779 L64.615,8.779 z M61.906,12.302 L61.906,6.035 L64.76,6.035 C66.536,6.035 67.597,6.904 67.597,8.36 C67.597,9.86 66.495,10.782 64.72,10.782 L64.445,10.782 L64.445,12.302 L61.906,12.302" fill="#171816"/>
    <path d="M64.76,5.701 L61.573,5.701 L61.573,12.635 L64.778,12.635 L64.778,11.115 C66.695,11.093 67.931,10.023 67.931,8.376 C67.931,6.72 66.715,5.701 64.76,5.701 z M64.111,9.112 L64.615,9.112 C65.096,9.112 65.416,8.896 65.416,8.496 L65.416,8.48 C65.416,8.072 65.12,7.864 64.624,7.864 L64.111,7.864 L64.111,9.112 M64.76,6.368 C66.248,6.368 67.264,7.032 67.264,8.36 L67.264,8.376 C67.264,9.728 66.232,10.448 64.72,10.448 L64.111,10.448 L64.111,11.968 L62.239,11.968 L62.239,6.368 L64.76,6.368" fill="#171816"/>
    <path d="M71.183,8.237 C70.64,8.237 70.357,8.697 70.357,9.152 C70.357,9.631 70.646,10.099 71.199,10.099 C71.742,10.099 72.026,9.639 72.026,9.184 C72.026,8.706 71.737,8.237 71.183,8.237 z M71.183,12.422 C69.287,12.422 67.802,11 67.802,9.184 C67.802,7.344 69.294,5.915 71.199,5.915 C73.096,5.915 74.581,7.337 74.581,9.152 C74.581,10.993 73.089,12.422 71.183,12.422" fill="#171816"/>
    <path d="M71.199,9.766 C70.849,9.766 70.69,9.456 70.69,9.168 C70.69,8.951 70.793,8.571 71.183,8.571 C71.533,8.571 71.693,8.88 71.693,9.168 C71.693,9.385 71.59,9.766 71.199,9.766 z M71.199,5.581 C69.107,5.581 67.469,7.157 67.469,9.168 C67.469,11.187 69.1,12.755 71.183,12.755 C73.276,12.755 74.915,11.18 74.915,9.168 C74.915,7.15 73.283,5.581 71.199,5.581 z M71.199,10.432 C71.912,10.432 72.36,9.84 72.36,9.184 L72.36,9.168 C72.36,8.504 71.903,7.904 71.183,7.904 C70.472,7.904 70.023,8.496 70.023,9.152 L70.023,9.168 C70.023,9.832 70.479,10.432 71.199,10.432 M71.199,6.248 C72.928,6.248 74.248,7.528 74.248,9.152 L74.248,9.168 C74.248,10.792 72.912,12.089 71.183,12.089 C69.455,12.089 68.135,10.808 68.135,9.184 L68.135,9.168 C68.135,7.544 69.471,6.248 71.199,6.248" fill="#171816"/>
    <path d="M79.916,12.342 L79.167,10.225 L78.419,12.342 L76.309,12.342 L74.261,6.035 L76.929,6.035 L77.492,7.945 L78.136,6.019 L80.232,6.019 L80.876,7.945 L81.439,6.035 L84.075,6.035 L82.026,12.342 L79.916,12.342" fill="#171816"/>
    <path d="M80.472,5.685 L77.895,5.685 L77.743,6.141 L77.512,6.833 L77.319,6.18 L77.178,5.701 L73.802,5.701 L75.917,12.214 L76.067,12.675 L78.655,12.675 L78.812,12.231 L79.167,11.225 L79.681,12.675 L82.268,12.675 L84.534,5.701 L81.189,5.701 L81.049,6.179 L80.856,6.834 L80.624,6.141 L80.472,5.685 z M79.992,6.352 L80.896,9.056 L81.688,6.368 L83.616,6.368 L81.784,12.009 L80.152,12.009 L79.167,9.224 L78.183,12.009 L76.551,12.009 L74.719,6.368 L76.68,6.368 L77.472,9.056 L78.375,6.352 L79.992,6.352" fill="#171816"/>
    <path d="M84.202,12.302 L84.202,6.035 L89.645,6.035 L89.645,8.237 L89.445,8.237 L89.445,10.099 L89.685,10.099 L89.685,12.302 L84.202,12.302" fill="#171816"/>
    <path d="M89.979,5.701 L83.869,5.701 L83.869,12.635 L90.019,12.635 L90.019,9.766 L89.779,9.766 L89.779,8.571 L89.979,8.571 L89.979,5.701 z M89.312,6.368 L89.312,7.904 L86.376,7.904 L86.376,8.472 L89.112,8.472 L89.112,9.824 L86.376,9.824 L86.376,10.432 L89.352,10.432 L89.352,11.968 L84.536,11.968 L84.536,6.368 L89.312,6.368" fill="#171816"/>
    <path d="M93.136,8.699 C93.392,8.699 93.523,8.628 93.523,8.488 C93.523,8.412 93.523,8.27 93.144,8.27 L92.661,8.27 L92.661,8.699 L93.136,8.699 z M93.605,12.302 L92.661,10.872 L92.661,12.302 L90.122,12.302 L90.122,6.035 L93.192,6.035 C94.196,6.035 94.954,6.283 95.444,6.773 C95.854,7.183 96.054,7.694 96.054,8.336 C96.054,9.118 95.716,9.754 95.095,10.173 L96.552,12.302 L93.605,12.302" fill="#171816"/>
    <path d="M93.192,5.701 L89.789,5.701 L89.789,12.635 L92.994,12.635 L92.994,11.982 L93.425,12.635 L97.185,12.635 L95.549,10.247 C96.094,9.774 96.387,9.121 96.387,8.352 C96.387,7.601 96.155,7.013 95.68,6.537 C95.125,5.982 94.288,5.701 93.192,5.701 z M92.328,9.032 L93.136,9.032 C93.584,9.032 93.856,8.832 93.856,8.488 L93.856,8.472 C93.856,8.112 93.576,7.936 93.144,7.936 L92.328,7.936 L92.328,9.032 M93.192,6.368 C94.184,6.368 94.816,6.616 95.208,7.008 C95.544,7.344 95.72,7.76 95.72,8.336 L95.72,8.352 C95.72,9.168 95.296,9.736 94.616,10.064 L95.92,11.968 L93.784,11.968 L92.728,10.368 L92.328,10.368 L92.328,11.968 L90.456,11.968 L90.456,6.368 L93.192,6.368" fill="#171816"/>
    <path d="M96.442,12.302 L96.442,6.035 L101.885,6.035 L101.885,8.237 L101.685,8.237 L101.685,10.099 L101.925,10.099 L101.925,12.302 L96.442,12.302" fill="#171816"/>
    <path d="M102.219,5.701 L96.109,5.701 L96.109,12.635 L102.259,12.635 L102.259,9.766 L102.019,9.766 L102.019,8.571 L102.219,8.571 L102.219,5.701 z M101.552,6.368 L101.552,7.904 L98.616,7.904 L98.616,8.472 L101.352,8.472 L101.352,9.824 L98.616,9.824 L98.616,10.432 L101.592,10.432 L101.592,11.968 L96.776,11.968 L96.776,6.368 L101.552,6.368" fill="#171816"/>
    <path d="M104.901,10.003 C105.955,9.995 105.955,9.401 105.955,9.176 C105.955,8.936 105.955,8.341 104.901,8.333 L104.901,10.003 z M102.362,12.302 L102.362,6.035 L104.84,6.035 C107.138,6.035 108.509,7.188 108.509,9.12 C108.509,11.089 107.079,12.302 104.776,12.302 L102.362,12.302" fill="#171816"/>
    <path d="M105.234,9.64 L105.234,8.697 C105.621,8.775 105.621,8.993 105.621,9.16 C105.621,9.341 105.621,9.561 105.234,9.64 z M104.84,5.701 L102.029,5.701 L102.029,12.635 L104.776,12.635 C107.284,12.635 108.843,11.294 108.843,9.136 C108.843,7.011 107.309,5.701 104.84,5.701 z M104.568,10.336 L104.88,10.336 C105.736,10.336 106.288,9.984 106.288,9.176 L106.288,9.16 C106.288,8.352 105.736,8 104.88,8 L104.568,8 L104.568,10.336 M104.84,6.368 C107.064,6.368 108.176,7.464 108.176,9.12 L108.176,9.136 C108.176,10.792 107.04,11.968 104.776,11.968 L102.695,11.968 L102.695,6.368 L104.84,6.368" fill="#171816"/>
    <path d="M114.216,8.235 C114.424,8.235 114.48,8.19 114.481,8.189 L114.474,8.156 C114.474,8.156 114.474,8.156 114.473,8.156 C114.466,8.156 114.4,8.118 114.208,8.118 L113.733,8.118 L113.733,8.235 L114.216,8.235 z M114.336,10.219 C114.535,10.219 114.61,10.168 114.618,10.155 L114.617,10.114 C114.61,10.102 114.537,10.054 114.344,10.054 L113.733,10.054 L113.733,10.219 L114.336,10.219 z M111.242,12.302 L111.242,6.035 L114.712,6.035 C115.548,6.035 116.129,6.226 116.54,6.636 C116.829,6.925 116.982,7.308 116.982,7.744 C116.982,8.268 116.781,8.697 116.404,9.005 C116.91,9.319 117.166,9.786 117.166,10.4 C117.166,11.562 116.19,12.302 114.68,12.302 L111.242,12.302" fill="#171816"/>
    <path d="M114.712,5.701 L110.909,5.701 L110.909,12.635 L114.68,12.635 C116.761,12.635 117.499,11.44 117.499,10.416 C117.499,9.953 117.375,9.405 116.906,8.969 C117.172,8.636 117.315,8.225 117.315,7.76 C117.315,7.218 117.128,6.754 116.776,6.401 C116.298,5.924 115.643,5.701 114.712,5.701 z M113.4,10.552 L114.336,10.552 C114.744,10.552 114.952,10.385 114.952,10.144 L114.952,10.128 C114.952,9.888 114.752,9.72 114.344,9.72 L113.4,9.72 L113.4,10.552 M113.4,8.568 L114.216,8.568 C114.616,8.568 114.808,8.432 114.808,8.184 L114.808,8.168 C114.808,7.92 114.608,7.784 114.208,7.784 L113.4,7.784 L113.4,8.568 M114.712,6.368 C115.488,6.368 115.976,6.544 116.304,6.872 C116.504,7.072 116.648,7.36 116.648,7.744 L116.648,7.76 C116.648,8.424 116.248,8.832 115.648,9.04 C116.368,9.248 116.832,9.632 116.832,10.4 L116.832,10.416 C116.832,11.313 116.096,11.968 114.68,11.968 L111.576,11.968 L111.576,6.368 L114.712,6.368" fill="#171816"/>
    <path d="M118.931,12.302 L118.931,10.075 L116.571,6.035 L119.45,6.035 L120.209,7.49 L120.975,6.035 L123.831,6.035 L121.47,10.051 L121.47,12.302 L118.931,12.302" fill="#171816"/>
    <path d="M124.414,5.701 L120.774,5.701 L120.586,6.058 L120.21,6.772 L119.839,6.059 L119.652,5.701 L115.99,5.701 L118.597,10.165 L118.597,12.635 L121.803,12.635 L121.803,10.142 L123.823,6.706 L124.414,5.701 z M123.248,6.368 L121.136,9.96 L121.136,11.968 L119.264,11.968 L119.264,9.984 L117.152,6.368 L119.248,6.368 L120.208,8.208 L121.176,6.368 L123.248,6.368" fill="#171816"/>
    <path d="M63.949,8.112 C64.259,8.112 64.416,8.017 64.416,7.829 C64.416,7.722 64.416,7.531 63.957,7.531 L63.778,7.531 L63.778,8.112 L63.949,8.112 z M61.239,11.635 L61.239,5.368 L64.093,5.368 C65.87,5.368 66.931,6.237 66.931,7.693 C66.931,9.193 65.828,10.115 64.053,10.115 L63.778,10.115 L63.778,11.635 L61.239,11.635" fill="#2766A2"/>
    <path d="M64.093,5.035 L60.906,5.035 L60.906,11.968 L64.111,11.968 L64.111,10.448 C66.028,10.427 67.264,9.357 67.264,7.709 C67.264,6.053 66.049,5.035 64.093,5.035 z M63.445,8.446 L63.949,8.446 C64.429,8.446 64.749,8.23 64.749,7.829 L64.749,7.814 C64.749,7.405 64.453,7.197 63.957,7.197 L63.445,7.197 L63.445,8.446 M64.093,5.701 C65.581,5.701 66.597,6.365 66.597,7.693 L66.597,7.709 C66.597,9.062 65.565,9.782 64.053,9.782 L63.445,9.782 L63.445,11.302 L61.573,11.302 L61.573,5.701 L64.093,5.701" fill="#FFFFFE"/>
    <path d="M70.517,7.571 C69.974,7.571 69.69,8.031 69.69,8.485 C69.69,8.964 69.979,9.432 70.533,9.432 C71.076,9.432 71.36,8.972 71.36,8.518 C71.36,8.039 71.07,7.571 70.517,7.571 z M70.517,11.755 C68.621,11.755 67.135,10.333 67.135,8.518 C67.135,6.677 68.627,5.248 70.533,5.248 C72.429,5.248 73.915,6.67 73.915,8.485 C73.915,10.326 72.422,11.755 70.517,11.755" fill="#2766A2"/>
    <path d="M70.533,9.099 C70.183,9.099 70.023,8.789 70.023,8.502 C70.023,8.284 70.126,7.904 70.517,7.904 C70.867,7.904 71.026,8.214 71.026,8.502 C71.026,8.719 70.923,9.099 70.533,9.099 z M70.533,4.915 C68.441,4.915 66.802,6.49 66.802,8.502 C66.802,10.52 68.434,12.089 70.517,12.089 C72.609,12.089 74.248,10.513 74.248,8.502 C74.248,6.483 72.616,4.915 70.533,4.915 z M70.533,9.766 C71.245,9.766 71.693,9.174 71.693,8.518 L71.693,8.502 C71.693,7.838 71.237,7.237 70.517,7.237 C69.805,7.237 69.357,7.829 69.357,8.485 L69.357,8.502 C69.357,9.166 69.813,9.766 70.533,9.766 M70.533,5.581 C72.261,5.581 73.581,6.861 73.581,8.485 L73.581,8.502 C73.581,10.126 72.245,11.422 70.517,11.422 C68.789,11.422 67.469,10.142 67.469,8.518 L67.469,8.502 C67.469,6.877 68.805,5.581 70.533,5.581" fill="#FFFFFE"/>
    <path d="M79.25,11.675 L78.501,9.558 L77.752,11.675 L75.642,11.675 L73.594,5.368 L76.262,5.368 L76.825,7.278 L77.469,5.352 L79.565,5.352 L80.209,7.278 L80.772,5.368 L83.408,5.368 L81.359,11.675 L79.25,11.675" fill="#2766A2"/>
    <path d="M79.805,5.019 L77.229,5.019 L77.077,5.474 L76.845,6.167 L76.653,5.513 L76.512,5.035 L73.135,5.035 L75.25,11.548 L75.4,12.009 L77.988,12.009 L78.145,11.564 L78.501,10.558 L79.014,12.009 L81.601,12.009 L83.867,5.035 L80.523,5.035 L80.382,5.513 L80.189,6.167 L79.957,5.474 L79.805,5.019 z M79.325,5.685 L80.229,8.39 L81.021,5.701 L82.949,5.701 L81.117,11.342 L79.485,11.342 L78.501,8.558 L77.517,11.342 L75.885,11.342 L74.053,5.701 L76.013,5.701 L76.805,8.39 L77.709,5.685 L79.325,5.685" fill="#FFFFFE"/>
    <path d="M83.536,11.635 L83.536,5.368 L88.979,5.368 L88.979,7.571 L88.779,7.571 L88.779,9.432 L89.019,9.432 L89.019,11.635 L83.536,11.635" fill="#2766A2"/>
    <path d="M89.312,5.035 L83.202,5.035 L83.202,11.968 L89.352,11.968 L89.352,9.099 L89.112,9.099 L89.112,7.904 L89.312,7.904 L89.312,5.035 z M88.645,5.701 L88.645,7.237 L85.709,7.237 L85.709,7.805 L88.445,7.805 L88.445,9.158 L85.709,9.158 L85.709,9.766 L88.685,9.766 L88.685,11.302 L83.869,11.302 L83.869,5.701 L88.645,5.701" fill="#FFFFFE"/>
    <path d="M92.469,8.032 C92.726,8.032 92.856,7.961 92.856,7.822 C92.856,7.745 92.856,7.603 92.477,7.603 L91.994,7.603 L91.994,8.032 L92.469,8.032 z M92.938,11.635 L91.994,10.205 L91.994,11.635 L89.456,11.635 L89.456,5.368 L92.525,5.368 C93.53,5.368 94.288,5.616 94.777,6.106 C95.187,6.516 95.387,7.028 95.387,7.67 C95.387,8.451 95.05,9.088 94.428,9.507 L95.886,11.635 L92.938,11.635" fill="#2766A2"/>
    <path d="M92.525,5.035 L89.122,5.035 L89.122,11.968 L92.328,11.968 L92.328,11.316 L92.759,11.968 L96.518,11.968 L94.882,9.58 C95.428,9.107 95.72,8.454 95.72,7.686 C95.72,6.935 95.489,6.346 95.013,5.87 C94.458,5.316 93.622,5.035 92.525,5.035 z M91.661,8.366 L92.469,8.366 C92.917,8.366 93.189,8.165 93.189,7.822 L93.189,7.805 C93.189,7.445 92.909,7.27 92.477,7.27 L91.661,7.27 L91.661,8.366 M92.525,5.701 C93.517,5.701 94.149,5.949 94.542,6.342 C94.877,6.678 95.054,7.093 95.054,7.67 L95.054,7.686 C95.054,8.502 94.629,9.07 93.949,9.398 L95.253,11.302 L93.117,11.302 L92.061,9.702 L91.661,9.702 L91.661,11.302 L89.789,11.302 L89.789,5.701 L92.525,5.701" fill="#FFFFFE"/>
    <path d="M95.776,11.635 L95.776,5.368 L101.219,5.368 L101.219,7.571 L101.019,7.571 L101.019,9.432 L101.259,9.432 L101.259,11.635 L95.776,11.635" fill="#2766A2"/>
    <path d="M101.552,5.035 L95.442,5.035 L95.442,11.968 L101.592,11.968 L101.592,9.099 L101.352,9.099 L101.352,7.904 L101.552,7.904 L101.552,5.035 z M100.885,5.701 L100.885,7.237 L97.949,7.237 L97.949,7.805 L100.685,7.805 L100.685,9.158 L97.949,9.158 L97.949,9.766 L100.925,9.766 L100.925,11.302 L96.109,11.302 L96.109,5.701 L100.885,5.701" fill="#FFFFFE"/>
    <path d="M104.234,9.336 C105.288,9.328 105.288,8.734 105.288,8.51 C105.288,8.269 105.288,7.675 104.234,7.667 L104.234,9.336 z M101.695,11.635 L101.695,5.368 L104.173,5.368 C106.471,5.368 107.843,6.521 107.843,8.454 C107.843,10.422 106.412,11.635 104.109,11.635 L101.695,11.635" fill="#2766A2"/>
    <path d="M104.568,8.973 L104.568,8.03 C104.955,8.108 104.955,8.326 104.955,8.494 C104.955,8.674 104.955,8.894 104.568,8.973 z M104.173,5.035 L101.362,5.035 L101.362,11.968 L104.109,11.968 C106.618,11.968 108.176,10.628 108.176,8.469 C108.176,6.345 106.642,5.035 104.173,5.035 z M103.901,9.67 L104.213,9.67 C105.069,9.67 105.621,9.318 105.621,8.51 L105.621,8.494 C105.621,7.686 105.069,7.333 104.213,7.333 L103.901,7.333 L103.901,9.67 M104.173,5.701 C106.397,5.701 107.509,6.798 107.509,8.454 L107.509,8.469 C107.509,10.126 106.373,11.302 104.109,11.302 L102.029,11.302 L102.029,5.701 L104.173,5.701" fill="#FFFFFE"/>
    <path d="M113.549,7.568 C113.757,7.568 113.814,7.523 113.814,7.523 L113.807,7.489 C113.807,7.489 113.807,7.489 113.807,7.489 C113.8,7.489 113.734,7.451 113.541,7.451 L113.067,7.451 L113.067,7.568 L113.549,7.568 z M113.669,9.552 C113.868,9.552 113.943,9.501 113.951,9.488 L113.95,9.447 C113.943,9.436 113.87,9.387 113.677,9.387 L113.067,9.387 L113.067,9.552 L113.669,9.552 z M110.576,11.635 L110.576,5.368 L114.045,5.368 C114.882,5.368 115.463,5.559 115.873,5.97 C116.162,6.259 116.315,6.642 116.315,7.078 C116.315,7.601 116.114,8.031 115.737,8.338 C116.243,8.652 116.499,9.119 116.499,9.734 C116.499,10.895 115.523,11.635 114.013,11.635 L110.576,11.635" fill="#2766A2"/>
    <path d="M114.045,5.035 L110.242,5.035 L110.242,11.968 L114.013,11.968 C116.094,11.968 116.832,10.773 116.832,9.75 C116.832,9.287 116.709,8.738 116.24,8.302 C116.506,7.969 116.648,7.558 116.648,7.093 C116.648,6.551 116.462,6.087 116.109,5.734 C115.632,5.257 114.976,5.035 114.045,5.035 z M112.733,9.886 L113.669,9.886 C114.077,9.886 114.285,9.718 114.285,9.478 L114.285,9.462 C114.285,9.222 114.085,9.054 113.677,9.054 L112.733,9.054 L112.733,9.886 M112.733,7.901 L113.549,7.901 C113.949,7.901 114.141,7.765 114.141,7.518 L114.141,7.501 C114.141,7.253 113.941,7.118 113.541,7.118 L112.733,7.118 L112.733,7.901 M114.045,5.701 C114.821,5.701 115.309,5.877 115.638,6.205 C115.837,6.405 115.982,6.693 115.982,7.078 L115.982,7.093 C115.982,7.758 115.582,8.165 114.981,8.373 C115.701,8.581 116.166,8.966 116.166,9.734 L116.166,9.75 C116.166,10.646 115.43,11.302 114.013,11.302 L110.909,11.302 L110.909,5.701 L114.045,5.701" fill="#FFFFFE"/>
    <path d="M118.264,11.635 L118.264,9.408 L115.904,5.368 L118.783,5.368 L119.543,6.823 L120.308,5.368 L123.164,5.368 L120.803,9.384 L120.803,11.635 L118.264,11.635" fill="#2766A2"/>
    <path d="M123.747,5.035 L120.107,5.035 L119.92,5.391 L119.544,6.105 L119.172,5.393 L118.985,5.035 L115.324,5.035 L117.931,9.498 L117.931,11.968 L121.136,11.968 L121.136,9.475 L123.156,6.039 L123.747,5.035 z M122.582,5.701 L120.47,9.294 L120.47,11.302 L118.597,11.302 L118.597,9.318 L116.485,5.701 L118.581,5.701 L119.542,7.541 L120.51,5.701 L122.582,5.701" fill="#FFFFFE"/>
  </g>
  <defs/>
</svg>
